<?xml version="1.0" encoding="UTF-8"?>
<svg width="1106px" height="1162px" viewBox="0 0 1106 1162" version="1.1" xmlns="http://www.w3.org/2000/svg" xmlns:xlink="http://www.w3.org/1999/xlink">
    <title>Work from Home_02</title>
    <defs>
        <path d="M468.714198,2.0958459 C494.851242,-1.25783881 521.488575,-0.331002308 547.711035,3.06536567 C651.783329,16.7362041 747.960819,68.9012454 827.665383,137.163973 C880.580085,182.45701 926.984931,234.902541 967.453423,291.677375 C987.220935,319.403201 1005.62181,348.379037 1022.14964,378.190245 C1050.80033,429.879673 1072.95947,484.819126 1082.03178,542.673236 C1089.31038,589.076037 1087.53496,638.25325 1068.6094,681.60115 C1045.41308,734.754004 937.356775,836.279186 792.041152,872.724593 C721.945796,890.310096 650.849863,885.242983 574.079921,899.78578 C511.763447,911.621238 454.352245,951.286182 397.099672,973.24367 C384.995121,977.890048 372.951581,981.725444 360.908041,983.981559 C319.457275,991.719424 276.670372,990.780392 236.317801,979.268107 C188.521908,965.621659 145.631286,937.176315 111.55063,901.36506 C34.5915547,820.510771 -29.7199733,672.308394 14.4091684,482.319106 C49.9296803,329.360595 138.200166,189.822921 261.277336,97.072197 C296.529401,70.4622332 334.893018,47.6205915 376.081437,29.6387438" id="path-1"></path>
        <linearGradient x1="50%" y1="1.52818834%" x2="50%" y2="82.0444468%" id="linearGradient-3">
            <stop stop-color="#000000" stop-opacity="0" offset="0%"></stop>
            <stop stop-color="#FFFFFF" offset="100%"></stop>
        </linearGradient>
    </defs>
    <g id="Work-from-Home_02" stroke="none" stroke-width="1" fill="none" fill-rule="evenodd">
        <g id="Group" transform="translate(10.000000, 10.000000)">
            <g id="Group-3">
                <mask id="mask-2" fill="white">
                    <use xlink:href="#path-1"></use>
                </mask>
                <g id="Clip-2"></g>
                <path d="M111.55063,901.36506 C145.631286,937.176315 188.521908,965.621659 236.317801,979.268107 C276.670372,990.780392 319.457275,991.719424 360.908041,983.981559 C372.951581,981.725444 384.995121,977.890048 397.099672,973.24367 C454.352245,951.286182 511.763447,911.621238 574.079921,899.78578 C650.849863,885.242983 721.945796,890.310096 792.041152,872.724593 C937.356775,836.279186 1045.41308,734.754004 1068.6094,681.60115 C1087.53496,638.25325 1089.31038,589.076037 1082.03178,542.673236 C1072.95947,484.819126 1050.80033,429.879673 1022.14964,378.190245 C1005.62181,348.379037 987.220935,319.403201 967.453423,291.677375 C926.984931,234.902541 880.580085,182.45701 827.665383,137.163973 C747.960819,68.9012454 651.783329,16.7362041 547.711035,3.06536567 C521.488575,-0.331002308 494.851242,-1.25783881 468.714198,2.0958459 C436.512675,6.23002451 405.64119,16.7605945 376.081437,29.6387438 C334.893018,47.6205915 296.529401,70.4622332 261.277336,97.072197 C138.200166,189.822921 49.9296803,329.360595 14.4091684,482.319106 C-29.7199733,672.308394 34.5915547,820.510771 111.55063,901.36506" id="Fill-1" fill-opacity="0.5" fill="#B3A7CA" mask="url(#mask-2)"></path>
            </g>
            <g id="Group-18" transform="translate(142.000000, 135.000000)">
                <path d="M262.624999,462.506443 C262.710864,466.042385 263.269668,469.300923 264.524701,472.022845 C263.648555,468.947968 263.028215,465.764993 262.624999,462.506443" id="Fill-5" fill="#EBECF0" transform="translate(263.574850, 467.264644) scale(-1, 1) rotate(-3.000000) translate(-263.574850, -467.264644) "></path>
                <path d="M412.701074,730.678156 C575.195169,730.678156 704.731061,760.507002 704.731061,597.727743 C704.731061,500.428834 656.257203,406.689863 579.435509,349.824717 C527.735942,311.555535 461.075686,291.894791 395.710048,291.894791 C233.215953,291.894791 87.7301066,423.853453 87.7301066,586.632712 C87.7301066,749.411972 250.206979,730.678156 412.701074,730.678156 Z" id="Oval" fill="#2E0369"></path>
                <line x1="620.869975" y1="412.254006" x2="620.869975" y2="502.75942" id="Line" stroke="#141446" stroke-width="1.90192641" stroke-linecap="round"></line>
                <line x1="179.064571" y1="412.964326" x2="179.064571" y2="503.46974" id="Line-Copy" stroke="#141446" stroke-width="1.90192641" stroke-linecap="round"></line>
                <path d="M174.548748,507.916405 C152.406669,572.428782 142.711411,615.821965 145.462974,638.095955 C148.214537,660.369945 157.909795,668.411905 174.548748,662.221837 L174.548748,507.916405 Z" id="Path-9" fill="#000000" opacity="0.205026536"></path>
                <path d="M651.358007,507.311925 C629.215927,571.824302 619.520669,615.217486 622.272232,637.491475 C625.023795,659.765465 634.719053,667.807426 651.358007,661.617358 L651.358007,507.311925 Z" id="Path-9-Copy" fill="#000000" opacity="0.205026536" transform="translate(636.587016, 585.474255) scale(-1, 1) translate(-636.587016, -585.474255) "></path>
                <path d="M261.286327,322.891543 C287.22587,314.871884 307.049217,323.204565 320.756368,347.889584 C330.728551,365.84835 358.293233,381.861236 396.399309,377.345455 C405.914108,376.217899 420.827903,369.353613 441.140694,356.752597 C415.309951,364.465187 397.199791,367.548031 386.810215,366.001128 C364.386017,362.662392 345.163863,356.332713 332.114616,344.224083 C327.070934,339.543961 320.95118,333.102479 316.834534,325.389695 C313.863144,319.822616 312.509753,312.805741 310.632158,309.047646 C308.92124,305.623164 310.978464,303.030832 309.067312,303.603251 C304.480148,304.977178 292.543337,309.094591 273.756629,316.990951 C271.136993,318.092027 266.980225,320.058891 261.286327,322.891543 Z" id="Path-10" fill="#000000" opacity="0.5"></path>
                <path d="M483.731307,303.603251 L509.683889,312.886116 C504.589694,312.738505 498.764637,314.571942 492.208719,318.386428 C485.6528,322.200914 477.236785,328.653482 466.960674,337.74413 C471.930647,330.1815 475.353287,324.491354 477.228593,320.673691 C479.1039,316.856028 481.271471,311.165881 483.731307,303.603251 Z" id="Path-11" fill="#000000" opacity="0.5"></path>
                <polygon id="Path-12" fill-opacity="0.6" fill="url(#linearGradient-3)" opacity="0.400000006" points="174.506256 555.817984 128.65439 303.267315 650.874053 303.603251 623.249772 555.817984"></polygon>
                <path d="M194.299635,483.332283 L604.688861,483.332283 C615.192911,483.332283 623.708125,491.847498 623.708125,502.351547 L623.708125,767.645391 L623.708125,767.645391 L175.280371,767.645391 L175.280371,502.351547 C175.280371,491.847498 183.795585,483.332283 194.299635,483.332283 Z" id="Rectangle" fill="#0F0F41"></path>
                <ellipse id="Oval" fill="#FFFFFF" opacity="0.400000006" cx="396.656098" cy="625.488837" rx="22.7052028" ry="22.7450486"></ellipse>
                <path d="M389.355063,771.647246 L281.483226,832.92906 L101.628913,814.601246 C84.289722,802.408837 72.4732826,793.121229 66.1795951,786.738423 C52.1401953,772.500224 43.9877243,756.712904 36.909477,746.341923 C25.0715948,728.99717 14.6822892,704.919197 5.74156025,674.108005 C4.24318409,666.999395 3.21680284,661.888836 2.66241649,658.776327 C0.14886519,644.664416 -0.584928841,634.588864 0.4610344,628.54967 C2.58813675,616.268184 14.5061129,606.19551 18.4882342,601.511179 C40.8763722,575.175102 84.5825676,581.905431 89.0677083,583.335741 C117.065528,592.264239 120.631317,601.610065 133.807551,611.7711 C178.290704,646.074897 211.415326,675.979894 239.211386,692.784539 C275.240841,714.566843 325.288733,738.598753 389.355063,764.880269 L389.355063,771.647246 Z" id="Path-17" fill="#01204E"></path>
                <path d="M390.414003,764.880269 L281.483226,832.92906 L101.628913,814.601246 C84.289722,802.408837 72.4732826,793.121229 66.1795951,786.738423 C52.1401953,772.500224 43.9877243,756.712904 36.909477,746.341923 C25.0715948,728.99717 14.6822892,704.919197 5.74156025,674.108005 C4.24318409,666.999395 3.21680284,661.888836 2.66241649,658.776327 C0.14886519,644.664416 -0.584928841,634.588864 0.4610344,628.54967 C2.58813675,616.268184 14.5061129,606.19551 18.4882342,601.511179 C40.8763722,575.175102 84.5825676,581.905431 89.0677083,583.335741 C117.065528,592.264239 120.631317,601.610065 133.807551,611.7711 C178.290704,646.074897 211.415326,675.979894 239.211386,692.784539 C275.240841,714.566843 325.288733,738.598753 389.355063,764.880269 L390.414003,764.880269 Z" id="Path-17" fill="#191954"></path>
                <path d="M61.6878599,780.80968 C88.0485398,789.831174 107.482602,795.666133 119.990046,798.314557 C185.380713,812.160887 238.143743,814.124776 275.358452,811.251173 C323.250394,807.553109 347.62843,786.735565 348.492561,748.798542 L389.355063,764.880269 L389.355063,771.647246 L281.483226,832.92906 L101.628913,814.601246 C91.1098969,807.604676 83.5684392,802.175779 79.0045401,798.314557 C74.4406409,794.453334 68.6684142,788.618375 61.6878599,780.80968 Z" id="Path-18" fill-opacity="0.2" fill="#000000"></path>
                <path d="M51.5702655,583.335741 C47.5904466,608.477354 42.8009786,626.210167 37.2018616,636.534179 C31.6027445,646.858191 20.7407281,657.56356 4.61581221,668.650287 C3.3164819,662.204834 2.39928711,657.120678 1.86422784,653.397818 C1.61376111,651.655109 1.14970958,649.550162 0.861399567,646.975492 C0.643004958,645.025181 0.355871769,641.544743 0,636.534179 C0.68619233,625.645753 5.32120591,615.774119 13.9050407,606.919276 C18.6075054,602.068345 23.7308126,595.415375 30.8169384,591.160872 C34.7161529,588.819788 41.6339286,586.211411 51.5702655,583.335741 Z" id="Path-19" fill="#410692" opacity="0.600000024"></path>
                <path d="M471.088184,261.567645 C481.206732,261.568178 494.482408,252.253439 494.481605,237.016768 C494.481052,226.507193 495.372865,214.086255 489.630637,209.428079 C487.047844,207.332881 483.899893,209.427777 480.760668,209.427611 C470.64212,209.427078 462.440066,221.778407 462.440868,237.015078 C462.441671,252.251749 460.969636,261.567111 471.088184,261.567645 Z" id="Oval" fill="#FFAEA5" transform="translate(478.448957, 235.032220) rotate(2.000000) translate(-478.448957, -235.032220) "></path>
                <path d="M470.278207,261.567565 C475.312088,236.730644 482.042669,220.722459 490.46995,213.543009 C492.213265,212.057827 485.397651,207.499864 478.783469,208.693507 C474.204185,209.519917 469.873829,216.374323 467.920124,215.450472 C464.937104,214.039887 465.723131,229.412251 470.278207,261.567565 Z" id="Path-8" fill="#FF9392" transform="translate(478.447881, 235.032007) rotate(2.000000) translate(-478.447881, -235.032007) "></path>
                <path d="M308.338854,261.567645 C318.457402,261.568178 331.733077,252.253439 331.732275,237.016768 C331.731721,226.507193 332.623535,214.086255 326.881306,209.428079 C324.298513,207.332881 321.150563,209.427777 318.011337,209.427611 C307.892789,209.427078 299.690736,221.778407 299.691538,237.015078 C299.69234,252.251749 298.220306,261.567111 308.338854,261.567645 Z" id="Oval" fill="#FFAEA5" transform="translate(315.699626, 235.032220) scale(-1, 1) rotate(2.000000) translate(-315.699626, -235.032220) "></path>
                <path d="M305.662533,261.600179 C312.060525,237.240877 319.473161,221.471501 327.900441,214.292051 C328.32778,213.927988 327.330887,212.674015 326.740864,211.733254 C326.081261,210.681552 325.717548,209.920342 324.127017,209.192783 C321.336227,207.916187 314.997306,209.87887 311.816989,210.452813 C307.237705,211.279223 305.258155,216.406938 303.304451,215.483087 C301.222329,214.498511 300.976456,221.690444 302.56683,237.058884 C303.025582,241.491996 304.057483,249.672428 305.662533,261.600179 Z" id="Path-8" fill="#FF9392" transform="translate(314.768836, 235.184767) scale(-1, 1) rotate(2.000000) translate(-314.768836, -235.184767) "></path>
                <path d="M396.694619,367.925224 C417.829179,367.925224 445.916685,359.787451 461.106128,344.985752 C480.463949,326.122081 484.589626,303.484634 484.112464,303.523782 C481.821823,303.71171 475.117182,299.255283 469.451322,299.642245 C453.188327,300.75296 424.748746,299.642245 392.223723,299.642245 C357.357595,299.642245 322.612919,301.372946 309.642933,303.523782 C307.105078,303.944639 313.202274,328.32264 330.565779,344.985752 C346.805004,360.569933 373.46427,367.925224 396.694619,367.925224 Z" id="Oval" fill="#FFAEA5"></path>
                <path d="M390.316939,367.925224 C411.451499,367.925224 418.087356,359.787451 433.276799,344.985752 C452.634621,326.122081 471.996565,299.466001 471.519403,299.505148 C469.228761,299.693077 447.287854,299.255283 441.621994,299.642245 C425.358999,300.75296 396.919418,299.642245 364.394395,299.642245 C329.528267,299.642245 322.612919,301.372946 309.642933,303.523782 C307.105078,303.944639 313.202274,328.32264 330.565779,344.985752 C346.805004,360.569933 367.086589,367.925224 390.316939,367.925224 Z" id="Oval-Copy" fill="#FF9392"></path>
                <path d="M392.910419,341.389334 C413.591404,341.389334 420.084847,336.43177 434.948305,327.414515 C453.890682,315.92269 472.837093,299.683698 472.370172,299.707547 C471.155019,299.769613 464.137282,297.415293 457.220803,297.394084 C451.379086,297.376171 445.653005,299.683127 443.1144,299.791067 C427.20043,300.467719 399.3712,299.791067 367.544206,299.791067 C353.195496,299.791067 346.747252,297.155302 339.601608,297.394084 C331.719962,297.657461 325.407328,300.081443 319.373167,301.548233 C317.870017,301.913621 316.251373,302.503878 314.78478,302.65529 C312.301391,302.911678 317.450734,317.26328 334.441596,327.414515 C350.332307,336.908461 370.178623,341.389334 392.910419,341.389334 Z" id="Oval-Copy-2" fill="#FB7B7D"></path>
                <ellipse id="Oval" fill="#FFAEA5" cx="398.08855" cy="219.868803" rx="80.4142598" ry="119.411505"></ellipse>
                <path d="M372.837332,172.58893 C387.824306,193.041255 401.95204,206.024957 415.220535,211.540037 C428.48903,217.055117 449.464282,218.129459 478.146292,214.763064 C479.747454,144.650588 454.436224,108.46396 402.212602,106.203179 C370.094608,104.812778 334.915876,127.89091 321.060297,159.852349 C315.277971,173.190767 314.24668,197.135594 317.966425,231.686832 C334.117819,218.983899 345.604854,208.958301 352.427532,201.610036 C359.25021,194.261772 366.053476,184.58807 372.837332,172.58893 Z" id="Path-Copy-4" fill="#FB7B7D"></path>
                <path d="M372.545197,166.84305 C389.794426,189.096444 404.615878,202.798871 417.009553,207.95033 C429.403227,213.101788 449.762679,214.022384 478.087907,210.712115 C479.533236,139.469685 454.14409,102.718079 401.920468,100.457298 C369.802474,99.0668976 334.623741,122.145029 320.768163,154.106469 C314.985836,167.444886 313.954546,191.389713 317.674291,225.940951 C333.825684,213.238019 345.31272,203.21242 352.135398,195.864156 C358.958075,188.515891 365.761342,178.842189 372.545197,166.84305 Z" id="Path" fill="#0F0F41"></path>
                <path d="M372.41665,152.491885 C373.096368,159.636246 372.093498,167.255149 369.40804,175.348594 C365.379854,187.488761 364.691763,188.132254 355.516295,201.349428 C349.399317,210.160878 336.785315,220.160314 317.674291,231.347736" id="Path-2" stroke="#000000" stroke-width="1.90192641" stroke-linecap="round"></path>
                <path d="M365.432378,144.882642 C359.877831,162.692504 354.656847,175.765802 349.769424,184.102535 C344.882001,192.439268 336.447149,202.659444 324.464868,214.763064" id="Path-3" stroke="#000000" stroke-width="1.90192641" stroke-linecap="round"></path>
                <path d="M372.41665,135.112341 C383.886958,160.309111 395.085901,177.23602 406.013479,185.893067 C416.941057,194.550114 437.225754,202.297356 466.867567,209.134791" id="Path-4" stroke="#000000" stroke-width="1.90192641" stroke-linecap="round"></path>
                <path d="M381.690441,130.396929 C393.091027,150.400105 403.863613,164.308984 414.008198,172.123566 C424.152783,179.938148 440.002397,186.536897 461.557041,191.919811" id="Path-5" stroke="#000000" stroke-width="1.90192641" stroke-linecap="round"></path>
                <path d="M398.08855,130.396929 C412.873231,139.505845 423.621864,146.870831 430.334451,152.491885 C437.047037,158.11294 445.972993,167.223262 457.112316,179.822853" id="Path-6" stroke="#000000" stroke-width="1.90192641" stroke-linecap="round"></path>
                <path d="M382.005698,100.457298 C396.676441,100.457298 411.064201,101.68772 421.623741,95.9731778 C425.444541,93.9054622 430.005092,91.4817135 432.146355,86.9811889 C435.257503,80.4421496 440.757655,57.9549878 440.757655,50.228649 C440.757655,22.4881322 409.697618,0 382.005698,0 C354.313779,0 331.865042,22.4881322 331.865042,50.228649 C331.865042,65.0731652 334.825379,83.7639517 345.04547,92.9592883 C349.121849,96.626934 355.304477,102.689584 361.210819,103.65073 C368.168827,104.783014 375.042791,100.457298 382.005698,100.457298 Z" id="Oval" fill="#0F0F41"></path>
                <path d="M431.514732,40.8738309 C423.71816,30.9862067 411.64312,24.6404693 398.08855,24.6404693 C374.576543,24.6404693 355.516295,43.7341665 355.516295,67.2874355 C355.516295,81.6878038 362.641106,94.4211629 373.552066,102.142991" id="Path" stroke="#000000" stroke-width="1.90192641" stroke-linecap="round"></path>
                <path d="M388.654719,54.0069222 C381.859248,45.3862155 372.228495,39.1129163 361.17178,36.5986975 C357.678761,35.8044096 354.043425,35.3852945 350.310195,35.3858618 C324.866572,35.3897325 303.964175,54.8866194 301.671036,79.7812544 C301.533124,81.2784506 301.462287,82.7951704 301.462287,84.3283475" id="Path" stroke="#000000" stroke-width="1.90192641" stroke-linecap="round" transform="translate(345.058503, 59.857105) rotate(-85.000000) translate(-345.058503, -59.857105) "></path>
                <path d="M482.720625,60.957603 C476.808219,53.4583431 468.431708,47.9993373 458.816731,45.8087301 C455.779183,45.116677 452.618031,44.7508246 449.371919,44.7498944 C427.248219,44.7435688 409.080637,61.6903349 407.096208,83.3381374 C406.976862,84.6400649 406.91643,85.9589958 406.91643,87.2922652" id="Path-Copy-3" stroke="#000000" stroke-width="1.90192641" stroke-linecap="round" transform="translate(444.818528, 66.021080) scale(-1, 1) rotate(-102.000000) translate(-444.818528, -66.021080) "></path>
                <path d="M447.735186,96.9673039 C441.833789,89.4691307 433.467829,84.0148894 423.860981,81.8322952 C420.826002,81.1427736 417.667176,80.7797769 414.423087,80.7820046" id="Path" stroke="#000000" stroke-width="1.90192641" stroke-linecap="round" transform="translate(431.079137, 88.874654) rotate(123.000000) translate(-431.079137, -88.874654) "></path>
                <path d="M433.092405,61.4985434 C428.0456,55.2113751 420.229297,51.1763594 411.455278,51.1763594 C396.235702,51.1763594 383.897799,63.3173232 383.897799,78.2939611 C383.897799,87.4506136 388.509766,95.5472778 395.572547,100.457298" id="Path-Copy" stroke="#000000" stroke-width="1.90192641" stroke-linecap="round"></path>
                <path d="M426.493763,81.5804988 C424.25192,80.0282957 421.519352,79.1158775 418.571065,79.1144428 C410.959715,79.110153 404.792915,85.1759115 404.797129,92.6626959 C404.799709,97.2400839 407.108445,101.288887 410.641943,103.745386" id="Path" stroke="#000000" stroke-width="1.90192641" stroke-linecap="round" transform="translate(415.645446, 91.429914) rotate(20.000000) translate(-415.645446, -91.429914) "></path>
                <path d="M316.887658,207.95033 C338.540089,152.654296 361.68132,117.950755 386.311349,103.839709 C394.129486,99.3605381 382.917459,100.523487 367.938178,107.532961 C360.620473,110.957241 352.236064,116.340845 345.056123,122.053195 C335.14011,129.94236 331.865042,138.168791 324.464868,149.895457 C316.923174,161.846383 314.397437,181.198007 316.887658,207.95033 Z" id="Path-7" fill-opacity="0.5" fill="#000000"></path>
                <path d="M292.012596,897.943736 C146.210189,923.071038 71.0003103,905.679833 66.3829613,845.770123 C63.4792722,808.095005 91.6993638,812.496557 149.158364,818.821049 C165.738565,820.646027 194.943373,821.978224 234.654501,826.185357 C244.277532,827.204853 259.887107,829.452754 281.483226,832.92906" id="Path-15" fill="#FFAEA5"></path>
                <path d="M281.483226,832.92906 C283.960794,845.82947 285.544367,855.468008 286.233946,861.844674 C286.923525,868.221339 288.209666,878.371049 290.092369,892.293803 C279.916351,873.193973 270.173101,861.665188 260.862619,857.70745 C244.378032,850.700114 208.107519,847.386737 194.999733,843.553681 C170.787045,836.473266 132.121981,828.457849 79.0045401,819.507432 C79.7321066,816.111411 84.5085534,814.478413 93.3338806,814.608438 C127.431634,815.110806 182.97025,821.316698 202.669886,822.620128 C230.017639,824.429598 256.288752,827.865908 281.483226,832.92906 Z" id="Path-16" fill="#FF9392"></path>
                <path d="M517.464366,905.665975 C589.286319,912.721002 646.362915,913.859314 688.694153,909.080909 C705.036393,907.236176 718.333602,900.468051 730.518939,892.293803 C743.994356,883.254136 755.768221,872.024971 761.242461,853.447524 C762.841113,848.022319 762.841113,837.965197 761.242461,823.276157 C757.277942,818.783261 749.899965,815.891624 739.108531,814.601246 C728.317097,813.310868 711.512304,811.980539 688.694153,810.61026 L517.464366,853.447524 L517.464366,905.665975 Z" id="Path-21" fill="#FFAEA5"></path>
                <path d="M517.464366,905.665975 C531.785775,887.47815 546.62285,875.387697 561.975591,869.394616 C596.780787,855.808093 767.87714,833.254374 761.242461,823.276157 C760.472954,822.118858 757.144409,820.080704 751.256828,817.161694 C749.484247,816.386181 745.943439,815.661058 740.634401,814.986326 C735.872801,814.381168 729.535606,813.670014 721.610114,812.860581 C700.429601,810.697408 668.522045,807.863108 625.887444,804.357679 L517.464366,861.986764 L517.464366,905.665975 Z" id="Path-22" fill="#FF9392"></path>
                <path d="M409.153516,884.241412 C428.169839,889.913566 443.931918,893.986707 456.439755,896.460836 C468.947592,898.934964 489.289129,902.003344 517.464366,905.665975 C523.737854,896.232673 527.989765,888.929123 530.220098,883.755324 C532.450432,878.581526 536.230176,868.478926 541.559332,853.447524 L409.153516,884.241412 Z" id="Path-20" fill="#0F0F41"></path>
                <path d="M281.854809,832.92906 C544.735373,672.481544 697.116456,589.531325 738.998058,584.078401 C780.87966,578.625477 801.758604,603.200813 801.635437,657.804409 C796.271844,683.602635 791.47178,701.711681 787.2347,712.131545 C774.42677,743.62892 756.358993,765.373935 738.998058,779.153889 C680.871163,825.291146 612.477925,845.406916 541.745933,859.941052 C506.562295,867.170649 460.64671,874.051922 435.283646,880.089224 C399.436719,885.031726 373.803315,888.757255 358.383436,891.265811 C341.076243,894.081401 323.192719,896.223505 310.047093,897.943736 C301.014598,899.125725 293.907495,901.6102 292.012596,897.943736 C283.674341,881.809946 280.288412,860.138387 281.854809,832.92906" id="Path-13" fill="#141446"></path>
                <path d="M281.854809,831.963581 C544.735373,671.516066 686.717571,592.358772 728.599173,586.905849 C756.617988,583.257839 791.115349,601.941597 799.135773,632.00342 C803.104014,646.87702 788.637171,680.705106 787.2347,684.154075 C774.42677,715.65145 756.358993,737.396464 738.998058,751.176418 C680.871163,797.313675 612.477925,817.429446 541.745933,831.963581 C506.562295,839.193178 460.64671,846.074452 435.283646,852.111753 C399.436719,857.054255 373.803315,860.779784 358.383436,863.28834 C341.076243,866.103931 323.192719,868.246034 310.047093,869.966265 C301.014598,871.148254 293.907495,873.632729 292.012596,869.966265 C286.453759,859.210405 283.06783,846.542844 281.854809,831.963581 Z" id="Path-13-Copy" fill="#191954"></path>
                <path d="M752.924592,631.907397 C760.682852,639.836022 776.9198,648.468359 801.635437,657.804409 C802.121521,649.393922 802.121521,642.964987 801.635437,638.517602 C800.983184,632.549861 798.336468,621.942705 797.543855,618.822011 C795.133252,609.330937 790.439294,602.384073 786.991417,598.785097 C776.045051,587.359018 762.498066,583.15494 749.862163,583.335741 C748.290774,583.358225 721.207299,583.079943 720.513095,591.083784 C719.501507,602.746917 746.023255,624.854512 752.924592,631.907397 Z" id="Path-14" fill="#410692" opacity="0.900000036"></path>
                <path d="M375.4203,94.4202503 C382.509171,91.8471877 388.147586,90.438248 392.335542,90.1934312 C396.993544,89.9211368 402.997326,90.9053846 410.346888,93.1461747 C414.30506,94.3529719 417.009553,98.0049386 417.009553,102.142991 L417.009553,102.142991 L417.009553,102.142991 C405.870785,101.488545 397.274589,101.488545 391.220965,102.142991 C385.167341,102.797438 376.571145,104.973485 365.432378,108.671134 C365.432378,102.292745 369.424661,96.5965205 375.4203,94.4202503 Z" id="Rectangle" fill="#3D088B"></path>
                <ellipse id="Oval" fill="#000000" opacity="0.5" cx="395.106374" cy="388.114917" rx="4.6923714" ry="4.69946592"></ellipse>
                <ellipse id="Oval-Copy-3" fill="#000000" opacity="0.5" cx="395.106374" cy="406.912781" rx="4.6923714" ry="4.69946592"></ellipse>
                <ellipse id="Oval-Copy-4" fill="#000000" opacity="0.5" cx="395.106374" cy="423.360911" rx="4.6923714" ry="4.69946592"></ellipse>
                <ellipse id="Oval-Copy-5" fill="#000000" opacity="0.5" cx="395.106374" cy="442.158775" rx="4.6923714" ry="4.69946592"></ellipse>
                <ellipse id="Oval-Copy-6" fill="#000000" opacity="0.5" cx="395.106374" cy="458.606906" rx="4.6923714" ry="4.69946592"></ellipse>
                <ellipse id="Oval-Copy-7" fill="#000000" opacity="0.5" cx="395.106374" cy="477.40477" rx="4.6923714" ry="4.69946592"></ellipse>
            </g>
            <path d="M573.034349,1117.98724 C656.138599,1117.98724 732.626853,1141.54103 794.410076,1141.98741 C882.568262,1142.62434 940.285646,1118.94523 940.285646,1106.75641 C940.285646,1086.02539 776.7874,1069.21958 575.102092,1069.21958 C373.416785,1069.21958 209.918539,1086.02539 209.918539,1106.75641 C209.918539,1117.55516 254.895484,1141.97867 325.372294,1141.98741 C390.194047,1141.99544 476.406603,1117.98724 573.034349,1117.98724 Z" id="Oval-Copy-9" fill="#0F0F41" opacity="0.200000003"></path>
        </g>
    </g>
</svg>